<?xml version="1.0" encoding="UTF-8"?>
<svg id="Layer_1" data-name="Layer 1" xmlns="http://www.w3.org/2000/svg" xmlns:xlink="http://www.w3.org/1999/xlink" viewBox="0 0 629.23 550.73">
  <defs>
    <style>
      .cls-1 {
        fill: url(#linear-gradient);
      }

      .cls-1, .cls-2, .cls-3, .cls-4, .cls-5, .cls-6, .cls-7, .cls-8, .cls-9, .cls-10, .cls-11, .cls-12, .cls-13, .cls-14, .cls-15, .cls-16, .cls-17, .cls-18 {
        stroke-width: 0px;
      }

      .cls-2 {
        fill: url(#linear-gradient-6);
      }

      .cls-3 {
        fill: #363636;
      }

      .cls-19 {
        clip-path: url(#clippath-2);
      }

      .cls-5 {
        fill: #3f0501;
      }

      .cls-6 {
        fill: #fd6220;
      }

      .cls-7 {
        fill: url(#linear-gradient-5);
      }

      .cls-8 {
        fill: none;
      }

      .cls-20 {
        clip-path: url(#clippath-1);
      }

      .cls-9 {
        fill: #fff;
      }

      .cls-10 {
        fill: url(#linear-gradient-2);
      }

      .cls-11 {
        fill: #bc2e08;
      }

      .cls-12 {
        fill: url(#linear-gradient-3);
      }

      .cls-13 {
        fill: #ffd097;
      }

      .cls-21 {
        clip-path: url(#clippath);
      }

      .cls-22 {
        clip-path: url(#clippath-3);
      }

      .cls-14 {
        fill: #e0a769;
      }

      .cls-15 {
        fill: url(#linear-gradient-4);
      }

      .cls-16 {
        fill: #eaeaea;
      }

      .cls-17 {
        fill: #b77742;
      }

      .cls-18 {
        fill: #e9b47b;
      }
    </style>
    <clipPath id="clippath">
      <rect class="cls-8" x="109" width="450" height="350"/>
    </clipPath>
    <linearGradient id="linear-gradient" x1="462.72" y1="81.14" x2="375.03" y2="81.14" gradientTransform="translate(0 352) scale(1 -1)" gradientUnits="userSpaceOnUse">
      <stop offset="0" stop-color="#e9b47b"/>
      <stop offset="1" stop-color="#ffd097"/>
    </linearGradient>
    <linearGradient id="linear-gradient-2" x1="462.72" y1="88.01" x2="375.04" y2="88.01" gradientTransform="translate(0 352) scale(1 -1)" gradientUnits="userSpaceOnUse">
      <stop offset="0" stop-color="#e9b47b"/>
      <stop offset="1" stop-color="#ffd097"/>
    </linearGradient>
    <linearGradient id="linear-gradient-3" x1="462.72" y1="87.44" x2="375.03" y2="87.44" gradientTransform="translate(0 352) scale(1 -1)" gradientUnits="userSpaceOnUse">
      <stop offset="0" stop-color="#e9b47b"/>
      <stop offset="1" stop-color="#ffd097"/>
    </linearGradient>
    <linearGradient id="linear-gradient-4" x1="462.72" y1="75.31" x2="375.03" y2="75.31" gradientTransform="translate(0 352) scale(1 -1)" gradientUnits="userSpaceOnUse">
      <stop offset="0" stop-color="#e9b47b"/>
      <stop offset="1" stop-color="#ffd097"/>
    </linearGradient>
    <linearGradient id="linear-gradient-5" x1="462.72" y1="41.4" x2="375.03" y2="41.4" gradientTransform="translate(0 352) scale(1 -1)" gradientUnits="userSpaceOnUse">
      <stop offset="0" stop-color="#e9b47b"/>
      <stop offset="1" stop-color="#ffd097"/>
    </linearGradient>
    <linearGradient id="linear-gradient-6" x1="462.67" y1="41.23" x2="374.98" y2="41.23" gradientTransform="translate(0 352) scale(1 -1)" gradientUnits="userSpaceOnUse">
      <stop offset="0" stop-color="#e9b47b"/>
      <stop offset="1" stop-color="#ffd097"/>
    </linearGradient>
    <clipPath id="clippath-1">
      <rect class="cls-8" x="109" width="450" height="350"/>
    </clipPath>
    <clipPath id="clippath-2">
      <rect class="cls-8" x="109" width="450" height="350"/>
    </clipPath>
    <clipPath id="clippath-3">
      <rect class="cls-8" x="109" width="450" height="350"/>
    </clipPath>
  </defs>
  <g class="cls-21">
    <g>
      <g>
        <g>
          <g>
            <path class="cls-1" d="m440.37,301.6c-.06,6.15,4.87,11.18,11.01,11.24h0c6.15.06,11.19-4.87,11.25-11.01l.64-61.71c.06-6.15-4.87-11.18-11.02-11.24h0c-6.14-.06-11.2,4.87-11.26,11.01l-.63,61.71Z"/>
            <path class="cls-10" d="m417.89,301.6c-.06,6.15,4.87,11.18,11.01,11.24h0c6.15.06,11.19-4.87,11.25-11.01l.64-75.45c.06-6.15-4.87-11.18-11.02-11.24h0c-6.14-.06-11.18,4.87-11.24,11.01l-.64,75.45Z"/>
            <polygon class="cls-14" points="440.99 233.54 438.79 291.64 442.15 291.64 440.99 233.54"/>
            <path class="cls-12" d="m395.41,299.38c-.06,6.15,4.87,11.18,11.02,11.24h0c6.15.06,11.19-4.87,11.25-11.01l.64-69.87c.06-6.15-4.87-11.18-11.02-11.24h0c-6.14-.06-11.18,4.87-11.24,11.01l-.64,69.87Z"/>
            <path class="cls-15" d="m373.59,312.25c-.06,6.15,4.21,11.18,10.36,11.24h0c6.15.06,11.19-4.87,11.25-11.01l.64-71.36c.06-6.15-4.87-11.18-11.02-11.24h0c-6.14-.06-11.18,4.87-11.24,11.01v71.36Z"/>
          </g>
          <path class="cls-7" d="m373.59,310.15c-.25,24.5,19.4,44.55,43.91,44.8,24.5.26,44.58-19.39,44.83-43.89.25-24.51-19.41-44.57-43.91-44.82-24.51-.25-44.57,19.4-44.82,43.91Z"/>
          <path class="cls-14" d="m462.8,270.42c-.48-.75-1.04-1.46-1.68-2.11-2.46-2.51-5.76-3.92-9.42-3.95-7.2,0-13.11,5.85-13.19,13.04l-.21,20.7c-20.03,5.49-34.03,23.5-34.24,44.4-.04,3.43.38,6.99,1.18,10.59,3.89,1.16,7.99,1.81,12.25,1.86,24.5.26,44.58-19.39,44.83-43.89,0-.12,0-.24,0-.36,0-.06.01-.12.01-.18l.47-40.1Z"/>
          <path class="cls-2" d="m462.67,277.65c.06-6.06-4.8-11.01-10.85-11.07-6.05-.06-11.02,4.78-11.08,10.84l-.23,22.41c-19.43,4.56-34.01,21.83-34.22,42.69-.04,3.87.48,7.62,1.37,11.2,3.15.76,6.43,1.19,9.84,1.23,24.5.26,44.58-19.39,44.83-43.89.04-3.88.35-33.41.35-33.41Z"/>
        </g>
        <path class="cls-14" d="m439.49,291.64c0,.61-.5,1.11-1.11,1.11h-49.99c-.61,0-1.11-.5-1.11-1.11h0c0-.61.5-1.11,1.11-1.11h49.99c.61,0,1.11.5,1.11,1.11h0Z"/>
        <polygon class="cls-14" points="418.32 229.74 416.7 291.64 420.06 291.64 418.32 229.74"/>
        <polygon class="cls-14" points="396.03 236.5 394.16 290.53 397.52 290.53 396.03 236.5"/>
      </g>
      <g>
        <rect class="cls-5" x="377.47" y="340.92" width="81.92" height="209.81"/>
        <rect class="cls-3" x="377.47" y="340.92" width="41.47" height="209.81"/>
      </g>
    </g>
  </g>
  <g class="cls-20">
    <ellipse class="cls-16" cx="294.52" cy="131.22" rx="165.13" ry="117.94"/>
  </g>
  <g class="cls-19">
    <g>
      <g>
        <path class="cls-3" d="m499.3,504.26h90.07c22.09,0,39.94-17.91,39.86-40l-.47-134.66c-.08-22.09-18.05-40-40.14-40h-89.32c-22.09,0-40,17.91-40,40v134.66c0,22.09,17.91,40,40,40Z"/>
        <polygon class="cls-3" points="586.61 291.03 490.64 291.03 491.84 283.98 585.6 283.98 586.61 291.03"/>
        <polygon class="cls-9" points="499.15 289.52 539.42 377.13 579.68 289.52 499.15 289.52"/>
        <g>
          <polygon class="cls-5" points="586.52 289.6 596.45 355.53 577.83 355.53 591.62 378.21 538.22 426.92 580.54 377.47 567.33 350.16 590.64 348.97 586.52 289.6"/>
          <polygon class="cls-5" points="491.11 289.6 481.18 355.53 499.79 355.53 486.01 378.21 539.4 426.92 497.08 377.47 510.29 350.16 486.97 348.97 491.11 289.6"/>
          <rect class="cls-5" x="538.22" y="425.54" width="1.18" height="78.72"/>
          <polygon class="cls-6" points="539.34 376.95 539.5 376.95 549.26 355.72 547.99 348.46 531.21 348.46 529.84 356.29 539.34 376.95"/>
          <polygon class="cls-6" points="531.3 327.79 526.34 338.12 531.3 348.46 547.99 348.46 552.95 338.12 547.99 327.79 531.3 327.79"/>
          <polygon class="cls-11" points="548.47 351.21 547.99 348.46 531.21 348.46 530.73 351.21 548.47 351.21"/>
        </g>
      </g>
      <g>
        <path class="cls-18" d="m575.35,289.37c0,19.56-15.87,35.44-35.44,35.44h0c-19.58,0-35.44-15.88-35.44-35.44v-15.11c0-19.58,15.86-35.44,35.44-35.44h0c19.57,0,35.44,15.85,35.44,35.44v15.11Z"/>
        <g>
          <path class="cls-13" d="m439.67,205.51c0,51.52,41.76,93.29,93.31,93.29h0c51.52,0,93.28-41.77,93.28-93.29v-34.17c0-51.51-41.76-93.28-93.28-93.28h0c-51.55,0-93.31,41.78-93.31,93.28v34.17h0Z"/>
          <path class="cls-11" d="m522.58,257.18c0,11.05-8.98,20-20.03,20s-20.04-8.95-20.04-20h40.07Z"/>
          <path class="cls-9" d="m516.78,257.18c0,2.88-7.68,5.2-17.13,5.2s-17.14-2.33-17.14-5.2h34.27Z"/>
          <path class="cls-17" d="m425.3,131.84c15.52-34.51,53.6-58.9,98.18-58.9,58.33,0,105.63,41.77,105.63,93.29v15.01c-79.3,17.37-164.03.97-203.8-49.4Z"/>
          <path class="cls-4" d="m531.62,214.42c0,5.37,3.73,9.75,8.32,9.75s8.31-4.37,8.31-9.75-3.73-9.74-8.31-9.74-8.32,4.36-8.32,9.74Z"/>
          <path class="cls-4" d="m454.57,214.42c0,5.37,3.73,9.75,8.32,9.75s8.3-4.37,8.3-9.75-3.72-9.74-8.3-9.74-8.32,4.36-8.32,9.74Z"/>
          <g>
            <polygon class="cls-13" points="551.07 250.07 551.07 241.18 551.09 241.18 551.07 250.07"/>
            <path class="cls-18" d="m496.36,224.69h5.11v22.57h-5.11c-6.25,0-11.3-5.05-11.3-11.27s5.05-11.3,11.3-11.3Z"/>
          </g>
          <rect class="cls-17" x="444.76" y="176.57" width="28.5" height="6.62"/>
          <path class="cls-13" d="m618.91,226.59c0,10.28-8.34,18.63-18.62,18.63v-37.25c10.28,0,18.62,8.33,18.62,18.63Z"/>
        </g>
        <path class="cls-13" d="m567.18,219.67c0,13.81,8.25,25,18.42,25s18.42-11.19,18.42-25-8.25-25-18.42-25-18.42,11.2-18.42,25Z"/>
      </g>
    </g>
  </g>
  <g class="cls-22">
    <path class="cls-16" d="m378.94,175l-22.86,23.79c28.55,57.5,76.61,82.5,121.27,69.43-38.19-11.75-73.71-43.47-98.41-93.22Z"/>
  </g>
</svg>