<?xml version="1.0" encoding="UTF-8"?>
<svg id="Layer_1" data-name="Layer 1" xmlns="http://www.w3.org/2000/svg" xmlns:xlink="http://www.w3.org/1999/xlink" viewBox="0 0 629.23 563.79">
  <defs>
    <style>
      .cls-1 {
        fill: url(#linear-gradient);
      }

      .cls-1, .cls-2, .cls-3, .cls-4, .cls-5, .cls-6, .cls-7, .cls-8, .cls-9, .cls-10, .cls-11, .cls-12, .cls-13, .cls-14, .cls-15, .cls-16, .cls-17 {
        stroke-width: 0px;
      }

      .cls-2 {
        fill: url(#linear-gradient-6);
      }

      .cls-4 {
        fill: #fd6220;
      }

      .cls-5 {
        fill: url(#linear-gradient-5);
      }

      .cls-6 {
        fill: none;
      }

      .cls-7 {
        fill: #3d1e00;
      }

      .cls-8 {
        fill: #fff;
      }

      .cls-9 {
        fill: url(#linear-gradient-2);
      }

      .cls-10 {
        fill: #bc2e08;
      }

      .cls-11 {
        fill: url(#linear-gradient-3);
      }

      .cls-12 {
        fill: #ffd097;
      }

      .cls-18 {
        clip-path: url(#clippath);
      }

      .cls-13 {
        fill: #e0a769;
      }

      .cls-14 {
        fill: #225e87;
      }

      .cls-15 {
        fill: #0a3b56;
      }

      .cls-16 {
        fill: url(#linear-gradient-4);
      }

      .cls-17 {
        fill: #e9b47b;
      }
    </style>
    <clipPath id="clippath">
      <rect class="cls-6" x="109" y="13.07" width="450" height="350"/>
    </clipPath>
    <linearGradient id="linear-gradient" x1="194.51" y1="131.18" x2="281.91" y2="131.18" gradientTransform="translate(0 378.13) scale(1 -1)" gradientUnits="userSpaceOnUse">
      <stop offset="0" stop-color="#e9b47b"/>
      <stop offset="1" stop-color="#ffd097"/>
    </linearGradient>
    <linearGradient id="linear-gradient-2" x1="194.51" y1="138.05" x2="281.91" y2="138.05" gradientTransform="translate(0 378.13) scale(1 -1)" gradientUnits="userSpaceOnUse">
      <stop offset="0" stop-color="#e9b47b"/>
      <stop offset="1" stop-color="#ffd097"/>
    </linearGradient>
    <linearGradient id="linear-gradient-3" x1="194.51" y1="137.47" x2="281.91" y2="137.47" gradientTransform="translate(0 378.13) scale(1 -1)" gradientUnits="userSpaceOnUse">
      <stop offset="0" stop-color="#e9b47b"/>
      <stop offset="1" stop-color="#ffd097"/>
    </linearGradient>
    <linearGradient id="linear-gradient-4" x1="194.51" y1="125.34" x2="281.91" y2="125.34" gradientTransform="translate(0 378.13) scale(1 -1)" gradientUnits="userSpaceOnUse">
      <stop offset="0" stop-color="#e9b47b"/>
      <stop offset="1" stop-color="#ffd097"/>
    </linearGradient>
    <linearGradient id="linear-gradient-5" x1="194.51" y1="91.44" x2="281.91" y2="91.44" gradientTransform="translate(0 378.13) scale(1 -1)" gradientUnits="userSpaceOnUse">
      <stop offset="0" stop-color="#e9b47b"/>
      <stop offset="1" stop-color="#ffd097"/>
    </linearGradient>
    <linearGradient id="linear-gradient-6" x1="194.51" y1="91.26" x2="281.91" y2="91.26" gradientTransform="translate(0 378.13) scale(1 -1)" gradientUnits="userSpaceOnUse">
      <stop offset="0" stop-color="#e9b47b"/>
      <stop offset="1" stop-color="#ffd097"/>
    </linearGradient>
  </defs>
  <g class="cls-18">
    <g>
      <g>
        <g>
          <g>
            <g>
              <path class="cls-1" d="m216.99,277.7c.07,6.15-4.87,11.18-11.01,11.24h0c-6.15.06-11.19-4.87-11.25-11.01l-.64-61.71c-.06-6.15,4.87-11.18,11.02-11.24h0c6.14-.06,11.2,4.87,11.26,11.01l.62,61.71Z"/>
              <path class="cls-9" d="m239.47,277.7c.06,6.15-4.87,11.18-11.01,11.24h0c-6.15.06-11.19-4.87-11.25-11.01l-.64-75.45c-.06-6.15,4.88-11.18,11.02-11.24h0c6.14-.06,11.18,4.87,11.24,11.01l.64,75.45Z"/>
              <polygon class="cls-13" points="216.37 209.63 218.58 267.74 215.21 267.74 216.37 209.63"/>
              <path class="cls-11" d="m261.95,275.48c.06,6.15-4.87,11.18-11.01,11.24h0c-6.15.06-11.19-4.87-11.25-11.01l-.64-69.87c-.06-6.15,4.87-11.18,11.02-11.24h0c6.14-.06,11.18,4.87,11.24,11.01l.64,69.87Z"/>
              <path class="cls-16" d="m283.77,288.35c.06,6.14-4.21,11.18-10.36,11.24h0c-6.15.06-11.19-4.87-11.25-11.01l-.64-71.36c-.06-6.14,4.88-11.18,11.02-11.24h0c6.14-.06,11.18,4.87,11.24,11.01v71.36Z"/>
            </g>
            <path class="cls-5" d="m283.77,286.25c.25,24.5-19.4,44.55-43.91,44.8-24.5.26-44.57-19.39-44.83-43.89-.25-24.51,19.41-44.57,43.91-44.82,24.51-.25,44.57,19.4,44.83,43.91Z"/>
            <path class="cls-13" d="m194.56,246.51c.48-.75,1.04-1.46,1.68-2.1,2.47-2.51,5.76-3.91,9.42-3.95,7.19,0,13.11,5.85,13.18,13.04l.21,20.7c20.03,5.49,34.03,23.5,34.24,44.4.04,3.43-.38,6.99-1.18,10.6-3.89,1.16-7.99,1.81-12.25,1.86-24.5.26-44.57-19.39-44.83-43.89,0-.12,0-.24,0-.36,0-.06-.01-.12-.01-.19l-.47-40.1Z"/>
            <path class="cls-2" d="m194.69,253.75c-.06-6.06,4.8-11.01,10.85-11.07,6.05-.06,11.01,4.78,11.08,10.84l.23,22.41c19.43,4.56,34.01,21.83,34.22,42.69.04,3.87-.48,7.62-1.37,11.2-3.15.76-6.43,1.19-9.84,1.23-24.5.26-44.57-19.39-44.83-43.89-.04-3.88-.34-33.41-.34-33.41Z"/>
          </g>
          <path class="cls-13" d="m217.87,267.74c0,.61.5,1.11,1.11,1.11h49.99c.61,0,1.11-.5,1.11-1.11h0c0-.61-.5-1.11-1.11-1.11h-49.99c-.61,0-1.11.5-1.11,1.11h0Z"/>
          <polygon class="cls-13" points="239.04 205.84 240.66 267.74 237.3 267.74 239.04 205.84"/>
          <polygon class="cls-13" points="261.33 212.6 263.2 266.63 259.84 266.63 261.33 212.6"/>
        </g>
        <g>
          <rect class="cls-15" x="197.98" y="317.02" width="81.92" height="209.81"/>
          <rect class="cls-14" x="238.42" y="317.02" width="41.47" height="209.81"/>
        </g>
      </g>
      <g>
        <path class="cls-12" d="m36.47,232.49c0,13.66-8.17,24.74-18.24,24.74S0,246.15,0,232.49s8.16-24.75,18.24-24.75,18.24,11.08,18.24,24.75Z"/>
        <path class="cls-12" d="m218.26,232.49c0,13.66-8.16,24.74-18.23,24.74s-18.24-11.08-18.24-24.74,8.17-24.75,18.24-24.75,18.23,11.08,18.23,24.75Z"/>
        <path class="cls-13" d="m211,232.49c0,10.94-6.53,19.81-14.6,19.81s-14.61-8.87-14.61-19.81,6.54-19.82,14.61-19.82,14.6,8.87,14.6,19.82Z"/>
        <path class="cls-12" d="m203.81,236.54c0,2.44-1.97,4.42-4.41,4.42s-4.41-1.98-4.41-4.42,1.98-4.42,4.41-4.42c2.44,0,4.41,1.98,4.41,4.42Z"/>
        <polygon class="cls-14" points="160.76 305.56 59.83 305.56 65.05 299.31 155.54 299.31 160.76 305.56"/>
        <path class="cls-14" d="m199.34,517.33v-174.66c0-22.09-17.91-40-40-40H61.26c-22.09,0-40,17.91-40,40v174.66h178.08Z"/>
        <polygon class="cls-8" points="67.95 303.96 110.31 396.11 152.64 303.96 67.95 303.96"/>
        <path class="cls-17" d="m147.19,305.96c0,20.02-16.25,36.28-36.29,36.28h0c-20.05,0-36.28-16.25-36.28-36.28v-15.47c0-20.04,16.24-36.28,36.28-36.28h0c20.03,0,36.29,16.23,36.29,36.28v15.47Z"/>
        <polygon class="cls-15" points="160.93 304.05 171.37 373.4 151.79 373.4 166.29 397.25 110.13 448.48 154.65 396.46 140.75 367.75 165.27 366.49 160.93 304.05"/>
        <polygon class="cls-15" points="60.58 304.05 50.14 373.4 69.72 373.4 55.22 397.25 111.38 448.48 66.86 396.46 80.76 367.75 56.24 366.49 60.58 304.05"/>
        <polygon class="cls-4" points="119.08 366.15 101.43 366.15 100.08 373.86 110.31 396.11 120.38 374.19 119.08 366.15"/>
        <polygon class="cls-4" points="101.52 344.41 96.3 355.27 101.52 366.15 119.08 366.15 124.3 355.27 119.08 344.41 101.52 344.41"/>
        <polygon class="cls-10" points="119.58 369.04 119.08 366.15 101.43 366.15 100.92 369.04 119.58 369.04"/>
        <path class="cls-12" d="m200.45,222.07c0,50.44-40.88,91.32-91.32,91.32h0c-50.43,0-91.32-40.89-91.32-91.32v-48.11c0-50.44,40.89-91.32,91.32-91.32h0c50.43,0,91.32,40.88,91.32,91.32v48.11Z"/>
        <path class="cls-3" d="m73.03,227.49c0,5.27-3.64,9.54-8.14,9.54s-8.14-4.27-8.14-9.54,3.64-9.54,8.14-9.54,8.14,4.27,8.14,9.54Z"/>
        <path class="cls-3" d="m166.74,227.49c0,5.27-3.65,9.54-8.14,9.54s-8.13-4.27-8.13-9.54,3.64-9.54,8.14-9.54,8.14,4.27,8.14,9.54Z"/>
        <path class="cls-7" d="m6.63,183.97c5.62-57.21,49.41-101.75,102.64-101.75,20.64,0,39.81,6.76,55.94,18.3.22,2.87.41,5.77.41,8.69,0,57.36-42.04,103.84-93.92,103.84-25.28,0-48.2-11.1-65.07-29.08Z"/>
        <path class="cls-7" d="m165.56,151.48c-16.28-18-25.2-41-27-64.53,37.94,12.4,63.85,38.96,69.89,83.05-17.14,0-29.85-4.1-42.89-18.52Z"/>
        <g>
          <polygon class="cls-12" points="109.3 267.74 109.3 259.04 109.28 259.04 109.3 267.74"/>
          <path class="cls-17" d="m114.32,236.95h-5.02v22.09h5.02c6.1,0,11.05-4.94,11.05-11.04,0-6.1-4.95-11.05-11.05-11.05Z"/>
        </g>
        <path class="cls-8" d="m95.43,275.5c0,7.65,6.21,13.86,13.86,13.86s13.85-6.21,13.85-13.86h-27.71Z"/>
        <rect class="cls-7" x="146.71" y="183.84" width="27.91" height="6.46"/>
        <polygon class="cls-7" points="21.61 228.9 6.63 215.36 6.63 183.97 21.61 183.97 21.61 228.9"/>
        <polygon class="cls-7" points="208.45 215.36 193.48 231.15 193.48 165.49 208.45 169.99 208.45 215.36"/>
      </g>
    </g>
  </g>
</svg>