<?xml version="1.0" encoding="UTF-8"?>
<svg id="Layer_1" data-name="Layer 1" xmlns="http://www.w3.org/2000/svg" xmlns:xlink="http://www.w3.org/1999/xlink" viewBox="0 0 559 524.39">
  <defs>
    <style>
      .cls-1 {
        fill: #f7f1e7;
      }

      .cls-1, .cls-2, .cls-3, .cls-4, .cls-5, .cls-6, .cls-7, .cls-8, .cls-9, .cls-10, .cls-11, .cls-12, .cls-13, .cls-14, .cls-15, .cls-16, .cls-17, .cls-18 {
        stroke-width: 0px;
      }

      .cls-2 {
        fill: url(#linear-gradient);
      }

      .cls-3 {
        fill: url(#linear-gradient-6);
      }

      .cls-4 {
        fill: #363636;
      }

      .cls-19 {
        clip-path: url(#clippath-2);
      }

      .cls-6 {
        fill: #3f0501;
      }

      .cls-7 {
        fill: #fd6220;
      }

      .cls-8 {
        fill: url(#linear-gradient-5);
      }

      .cls-9 {
        fill: none;
      }

      .cls-20 {
        clip-path: url(#clippath-1);
      }

      .cls-10 {
        fill: #fff;
      }

      .cls-11 {
        fill: url(#linear-gradient-2);
      }

      .cls-12 {
        fill: #bc2e08;
      }

      .cls-13 {
        fill: url(#linear-gradient-3);
      }

      .cls-14 {
        fill: #ffd097;
      }

      .cls-21 {
        clip-path: url(#clippath);
      }

      .cls-22 {
        clip-path: url(#clippath-3);
      }

      .cls-15 {
        fill: #e0a769;
      }

      .cls-16 {
        fill: url(#linear-gradient-4);
      }

      .cls-17 {
        fill: #b77742;
      }

      .cls-18 {
        fill: #e9b47b;
      }
    </style>
    <clipPath id="clippath">
      <rect class="cls-9" x="80" width="450" height="350"/>
    </clipPath>
    <clipPath id="clippath-1">
      <rect class="cls-9" x="109" y="48" width="389.25" height="302.75"/>
    </clipPath>
    <linearGradient id="linear-gradient" x1="414.97" y1="69.71" x2="339.12" y2="69.71" gradientTransform="translate(0 352) scale(1 -1)" gradientUnits="userSpaceOnUse">
      <stop offset="0" stop-color="#e9b47b"/>
      <stop offset="1" stop-color="#ffd097"/>
    </linearGradient>
    <linearGradient id="linear-gradient-2" x1="414.97" y1="75.65" x2="339.12" y2="75.65" gradientTransform="translate(0 352) scale(1 -1)" gradientUnits="userSpaceOnUse">
      <stop offset="0" stop-color="#e9b47b"/>
      <stop offset="1" stop-color="#ffd097"/>
    </linearGradient>
    <linearGradient id="linear-gradient-3" x1="414.97" y1="75.15" x2="339.12" y2="75.15" gradientTransform="translate(0 352) scale(1 -1)" gradientUnits="userSpaceOnUse">
      <stop offset="0" stop-color="#e9b47b"/>
      <stop offset="1" stop-color="#ffd097"/>
    </linearGradient>
    <linearGradient id="linear-gradient-4" x1="414.97" y1="64.66" x2="339.12" y2="64.66" gradientTransform="translate(0 352) scale(1 -1)" gradientUnits="userSpaceOnUse">
      <stop offset="0" stop-color="#e9b47b"/>
      <stop offset="1" stop-color="#ffd097"/>
    </linearGradient>
    <linearGradient id="linear-gradient-5" x1="414.97" y1="35.33" x2="339.12" y2="35.33" gradientTransform="translate(0 352) scale(1 -1)" gradientUnits="userSpaceOnUse">
      <stop offset="0" stop-color="#e9b47b"/>
      <stop offset="1" stop-color="#ffd097"/>
    </linearGradient>
    <linearGradient id="linear-gradient-6" x1="414.93" y1="35.18" x2="339.08" y2="35.18" gradientTransform="translate(0 352) scale(1 -1)" gradientUnits="userSpaceOnUse">
      <stop offset="0" stop-color="#e9b47b"/>
      <stop offset="1" stop-color="#ffd097"/>
    </linearGradient>
    <clipPath id="clippath-2">
      <rect class="cls-9" x="109" y="48" width="389.25" height="302.75"/>
    </clipPath>
    <clipPath id="clippath-3">
      <rect class="cls-9" x="80" width="450" height="350"/>
    </clipPath>
  </defs>
  <g class="cls-21">
    <g>
      <g class="cls-20">
        <g>
          <g>
            <g>
              <g>
                <path class="cls-2" d="m395.64,308.88c-.06,5.32,4.21,9.67,9.53,9.73h0c5.32.06,9.68-4.21,9.73-9.53l.55-53.38c.06-5.32-4.22-9.67-9.53-9.73h0c-5.31-.06-9.68,4.21-9.74,9.53l-.54,53.38Z"/>
                <path class="cls-11" d="m376.19,308.88c-.06,5.32,4.21,9.67,9.53,9.73h0c5.32.06,9.68-4.21,9.73-9.53l.55-65.27c.05-5.32-4.22-9.67-9.53-9.73h0c-5.31-.06-9.67,4.21-9.73,9.53l-.56,65.27Z"/>
                <polygon class="cls-15" points="396.17 250.01 394.27 300.27 397.18 300.27 396.17 250.01"/>
                <path class="cls-13" d="m356.75,306.97c-.05,5.32,4.21,9.67,9.53,9.72h0c5.32.06,9.68-4.21,9.73-9.53l.56-60.44c.05-5.32-4.22-9.67-9.53-9.73h0c-5.31-.06-9.67,4.21-9.73,9.53l-.56,60.44Z"/>
                <path class="cls-16" d="m337.87,318.1c-.06,5.32,3.65,9.67,8.96,9.73h0c5.32.05,9.68-4.21,9.73-9.53l.55-61.72c.06-5.32-4.22-9.67-9.53-9.73h0c-5.31-.05-9.67,4.21-9.73,9.53v61.72Z"/>
              </g>
              <path class="cls-8" d="m337.87,316.28c-.22,21.19,16.78,38.54,37.98,38.76,21.19.22,38.56-16.77,38.78-37.97.22-21.2-16.79-38.55-37.98-38.77-21.2-.22-38.56,16.78-38.77,37.98Z"/>
              <path class="cls-15" d="m415.04,281.91c-.42-.65-.9-1.26-1.45-1.82-2.13-2.17-4.98-3.39-8.15-3.42-6.22,0-11.34,5.06-11.41,11.28l-.18,17.91c-17.33,4.75-29.43,20.33-29.62,38.41-.03,2.97.33,6.04,1.03,9.16,3.36,1,6.91,1.57,10.6,1.61,21.19.22,38.56-16.77,38.78-37.97,0-.1,0-.21,0-.32,0-.05,0-.1,0-.16l.41-34.68Z"/>
              <path class="cls-3" d="m414.93,288.17c.06-5.24-4.15-9.52-9.39-9.57-5.23-.05-9.53,4.14-9.58,9.38l-.2,19.39c-16.81,3.94-29.42,18.89-29.6,36.93-.04,3.35.42,6.59,1.19,9.69,2.73.66,5.56,1.03,8.51,1.06,21.19.22,38.56-16.77,38.78-37.97.03-3.36.3-28.9.3-28.9Z"/>
            </g>
            <path class="cls-15" d="m394.88,300.27c0,.53-.43.96-.96.96h-43.24c-.53,0-.96-.43-.96-.96h0c0-.53.43-.96.96-.96h43.24c.53,0,.96.43.96.96h0Z"/>
            <polygon class="cls-15" points="376.56 246.73 375.17 300.27 378.07 300.27 376.56 246.73"/>
            <polygon class="cls-15" points="357.29 252.58 355.67 299.31 358.57 299.31 357.29 252.58"/>
          </g>
          <g>
            <rect class="cls-6" x="341.23" y="342.9" width="70.86" height="181.49"/>
            <rect class="cls-4" x="341.23" y="342.9" width="35.87" height="181.49"/>
          </g>
        </g>
      </g>
      <g class="cls-19">
        <ellipse class="cls-1" cx="262.41" cy="167.09" rx="145.41" ry="109.88"/>
      </g>
      <g>
        <g>
          <path class="cls-4" d="m446.61,484.19h77.91c19.11,0,34.55-15.49,34.48-34.6l-.41-116.48c-.07-19.11-15.61-34.6-34.72-34.6h-77.26c-19.11,0-34.6,15.49-34.6,34.6v116.48c0,19.11,15.49,34.6,34.6,34.6Z"/>
          <polygon class="cls-4" points="522.14 299.75 439.12 299.75 440.16 293.65 521.26 293.65 522.14 299.75"/>
          <polygon class="cls-10" points="446.48 298.43 481.32 374.22 516.14 298.43 446.48 298.43"/>
          <g>
            <polygon class="cls-6" points="522.06 298.51 530.65 355.54 514.54 355.54 526.47 375.15 480.28 417.29 516.89 374.52 505.46 350.89 525.63 349.86 522.06 298.51"/>
            <polygon class="cls-6" points="439.53 298.51 430.94 355.54 447.04 355.54 435.12 375.15 481.3 417.29 444.69 374.52 456.12 350.89 435.95 349.86 439.53 298.51"/>
            <rect class="cls-6" x="480.28" y="416.1" width="1.02" height="68.09"/>
            <polygon class="cls-7" points="481.25 374.07 481.39 374.07 489.83 355.7 488.73 349.42 474.21 349.42 473.03 356.19 481.25 374.07"/>
            <polygon class="cls-7" points="474.29 331.54 470 340.48 474.29 349.42 488.73 349.42 493.03 340.48 488.73 331.54 474.29 331.54"/>
            <polygon class="cls-12" points="489.15 351.8 488.73 349.42 474.21 349.42 473.8 351.8 489.15 351.8"/>
          </g>
        </g>
        <g>
          <path class="cls-18" d="m512.39,298.31c0,16.92-13.73,30.65-30.66,30.65h0c-16.94,0-30.66-13.74-30.66-30.65v-13.07c0-16.94,13.72-30.65,30.66-30.65h0c16.93,0,30.66,13.71,30.66,30.65v13.07Z"/>
          <g>
            <path class="cls-14" d="m395.03,225.77c0,44.56,36.12,80.7,80.71,80.7h0c44.56,0,80.69-36.13,80.69-80.7v-29.55c0-44.55-36.12-80.69-80.69-80.69h0c-44.59,0-80.71,36.14-80.71,80.69v29.55h0Z"/>
            <path class="cls-12" d="m466.76,270.46c0,9.56-7.77,17.3-17.33,17.3s-17.34-7.74-17.34-17.3h34.66Z"/>
            <path class="cls-10" d="m461.73,270.46c0,2.49-6.65,4.5-14.82,4.5s-14.82-2.01-14.82-4.5h29.64Z"/>
            <path class="cls-17" d="m382.6,162.04c13.42-29.85,46.36-50.95,84.92-50.95,50.45,0,91.37,36.13,91.37,80.69v12.98c-68.59,15.02-141.89.84-176.29-42.73Z"/>
            <path class="cls-5" d="m474.57,233.48c0,4.65,3.23,8.43,7.2,8.43s7.19-3.78,7.19-8.43-3.22-8.43-7.19-8.43-7.2,3.77-7.2,8.43Z"/>
            <path class="cls-5" d="m407.92,233.48c0,4.65,3.23,8.43,7.2,8.43s7.18-3.78,7.18-8.43-3.22-8.43-7.18-8.43-7.2,3.77-7.2,8.43Z"/>
            <g>
              <polygon class="cls-14" points="491.4 264.31 491.4 256.62 491.41 256.62 491.4 264.31"/>
              <path class="cls-18" d="m444.07,242.36h4.42v19.53h-4.42c-5.4,0-9.77-4.37-9.77-9.75s4.37-9.78,9.77-9.78Z"/>
            </g>
            <rect class="cls-17" x="399.43" y="200.74" width="24.65" height="5.72"/>
            <path class="cls-14" d="m550.07,244c0,8.9-7.22,16.11-16.11,16.11v-32.22c8.89,0,16.11,7.2,16.11,16.11Z"/>
          </g>
          <path class="cls-14" d="m505.33,238.02c0,11.94,7.14,21.63,15.93,21.63s15.94-9.68,15.94-21.63-7.13-21.63-15.94-21.63-15.93,9.69-15.93,21.63Z"/>
        </g>
      </g>
      <g class="cls-22">
        <path class="cls-1" d="m337.5,199.38l-19.78,20.58c24.69,49.74,66.27,71.37,104.9,60.05-33.04-10.16-63.76-37.61-85.13-80.64Z"/>
      </g>
    </g>
  </g>
</svg>